<?xml version="1.0" encoding="utf-8"?>
<!-- Generator: Adobe Illustrator 23.1.1, SVG Export Plug-In . SVG Version: 6.00 Build 0)  -->
<svg version="1.1" id="Camada_1" xmlns="http://www.w3.org/2000/svg" xmlns:xlink="http://www.w3.org/1999/xlink" x="0px" y="0px"
	 viewBox="0 0 482.09 255.83" style="enable-background:new 0 0 482.09 255.83;" xml:space="preserve">
<style type="text/css">
	.st0{fill:none;stroke:#1D1D1B;stroke-width:2;stroke-miterlimit:10;}
	.st1{stroke:#1D1D1B;stroke-width:4;stroke-miterlimit:10;}
	.st2{fill:#11AEBF;}
	.st3{fill:#598E3F;}
	.st4{fill:#A55F36;}
	.st5{fill:#B0D85B;}
	.st6{fill:#663B00;}
	.st7{fill:#003F66;}
	.st8{fill:none;stroke:#FFFFFF;stroke-width:8;stroke-miterlimit:10;}
	.st9{fill:#225D7A;}
	.st10{fill:#0B8C75;}
	.st11{fill:#08505B;}
	.st12{fill:#598E3F;stroke:#003F66;stroke-width:5;stroke-miterlimit:10;}
	.st13{fill:#B0D85B;stroke:#003F66;stroke-width:3;stroke-miterlimit:10;}
	.st14{fill:none;}
	.st15{fill:none;stroke:#003F66;stroke-width:5;stroke-miterlimit:10;}
	.st16{fill:#598E3F;stroke:#08505B;stroke-width:5;stroke-miterlimit:10;}
	.st17{fill:#B0D85B;stroke:#08505B;stroke-width:3;stroke-miterlimit:10;}
	.st18{fill:none;stroke:#08505B;stroke-width:5;stroke-miterlimit:10;}
	.st19{fill:none;stroke:#08505B;stroke-width:3;stroke-miterlimit:10;}
	.st20{fill:none;stroke:#12545B;stroke-width:8;stroke-miterlimit:10;}
	.st21{fill:#12545B;}
	.st22{fill:none;stroke:#000000;stroke-width:8;stroke-miterlimit:10;}
	.st23{stroke:#000000;stroke-width:14;stroke-miterlimit:10;}
	.st24{fill:none;stroke:#000000;stroke-width:4;stroke-miterlimit:10;}
	.st25{fill:#FA1700;}
	.st26{fill:#00187C;}
	.st27{fill:#1D1D1B;}
	.st28{fill:#2FAC66;}
	.st29{fill:none;stroke:#12545B;stroke-width:0.5;stroke-miterlimit:10;}
	.st30{fill:#FFFFFF;}
</style>
<g>
	<g>
		<polygon class="st10" points="125.91,95.87 125.91,143.31 92.43,143.31 		"/>
		<path class="st5" d="M88.16,154.76h37.97v22.84c-7.16-0.57-13.89-2.66-19.88-5.94C98.9,167.63,92.67,161.79,88.16,154.76z"/>
		<path class="st5" d="M126.24,78.23l-44.46,61.67c-0.95-3.84-1.45-7.85-1.45-11.99c0-12.14,4.35-23.28,11.58-31.93
			C100.25,85.98,112.47,79.3,126.24,78.23z"/>
		<path class="st10" d="M139.26,154.76h32.87c-0.13,0.21-0.26,0.4-0.38,0.6c-0.11,0.17-0.22,0.33-0.32,0.49
			c-0.38,0.57-0.79,1.13-1.2,1.68c-0.16,0.22-0.31,0.42-0.48,0.63c-0.28,0.37-0.57,0.75-0.86,1.11c-0.17,0.21-0.34,0.42-0.52,0.63
			c-0.32,0.39-0.66,0.78-0.99,1.16c-0.15,0.16-0.28,0.31-0.43,0.47c-0.47,0.52-0.95,1.02-1.44,1.52c-0.15,0.15-0.3,0.29-0.45,0.44
			c-0.37,0.35-0.74,0.72-1.12,1.06c-0.19,0.18-0.38,0.35-0.57,0.52c-0.37,0.33-0.76,0.67-1.14,0.99c-0.18,0.15-0.34,0.29-0.52,0.43
			c-0.55,0.45-1.11,0.89-1.67,1.32c-0.11,0.08-0.22,0.16-0.32,0.24c-0.48,0.35-0.96,0.7-1.45,1.03c-0.2,0.13-0.39,0.27-0.6,0.39
			c-0.42,0.28-0.85,0.56-1.29,0.83c-0.2,0.12-0.39,0.25-0.59,0.36c-0.57,0.34-1.15,0.67-1.73,0.99c-0.06,0.03-0.11,0.06-0.17,0.09
			c-0.63,0.34-1.28,0.68-1.92,0.99c-0.2,0.1-0.4,0.19-0.6,0.28c-0.48,0.22-0.95,0.44-1.43,0.65c-0.23,0.09-0.44,0.19-0.67,0.27
			c-0.53,0.23-1.08,0.44-1.62,0.65c-0.15,0.05-0.29,0.11-0.44,0.17c-0.69,0.25-1.37,0.48-2.08,0.71c-0.18,0.05-0.36,0.11-0.55,0.16
			c-0.53,0.17-1.07,0.31-1.61,0.46c-0.24,0.06-0.47,0.12-0.71,0.18c-0.54,0.14-1.08,0.27-1.62,0.37c-0.2,0.05-0.39,0.09-0.59,0.13
			c-0.26,0.05-0.51,0.1-0.78,0.15V154.76z"/>
		<path class="st11" d="M179.98,127.92c0,0.83-0.02,1.66-0.06,2.48c-0.02,0.27-0.04,0.53-0.06,0.8c-0.04,0.55-0.08,1.1-0.13,1.65
			c-0.03,0.31-0.08,0.63-0.11,0.94c-0.06,0.49-0.12,0.98-0.19,1.47c-0.05,0.33-0.11,0.66-0.17,0.99c-0.08,0.46-0.16,0.92-0.25,1.37
			c-0.07,0.35-0.15,0.7-0.23,1.04c-0.09,0.43-0.19,0.86-0.29,1.29c-0.09,0.36-0.19,0.72-0.28,1.08c-0.11,0.39-0.22,0.8-0.33,1.19
			c-0.11,0.36-0.23,0.73-0.34,1.08h-38.29V78.92c5.77,1.06,11.18,3.12,16.07,5.99C170.08,93.56,179.98,109.58,179.98,127.92z"/>
	</g>
	<g>
		<path class="st11" d="M229.44,137.89h4.8v6.21h-4.8v6.42h-6.83v-6.42h-22.21l29.03-42.19V137.89z M222.62,137.89v-15.15
			l-10.43,15.15H222.62z"/>
		<path class="st11" d="M286.4,112.02l-5.54,3.28c-1.04-1.8-2.02-2.97-2.96-3.52c-0.98-0.62-2.24-0.94-3.78-0.94
			c-1.89,0-3.47,0.54-4.72,1.61c-1.25,1.05-1.88,2.38-1.88,3.98c0,2.21,1.64,3.98,4.92,5.33l4.51,1.85c3.67,1.48,6.36,3.3,8.06,5.43
			s2.55,4.76,2.55,7.87c0,4.16-1.39,7.6-4.16,10.31c-2.79,2.73-6.26,4.1-10.4,4.1c-3.93,0-7.17-1.16-9.73-3.49
			c-2.52-2.32-4.09-5.6-4.72-9.81l6.91-1.52c0.31,2.66,0.86,4.49,1.64,5.51c1.41,1.95,3.46,2.93,6.15,2.93c2.13,0,3.9-0.71,5.3-2.14
			s2.11-3.23,2.11-5.42c0-0.88-0.12-1.68-0.37-2.42s-0.62-1.41-1.14-2.02s-1.19-1.19-2.01-1.73s-1.8-1.05-2.93-1.54l-4.37-1.82
			c-6.19-2.62-9.29-6.45-9.29-11.48c0-3.4,1.3-6.24,3.9-8.53c2.6-2.3,5.83-3.46,9.7-3.46C279.39,104.41,283.47,106.95,286.4,112.02z
			"/>
		<path class="st11" d="M321.9,139.53h-19.37l-5.04,10.99h-7.35l22.38-48.08l21.59,48.08h-7.47L321.9,139.53z M319.12,133.12
			l-6.71-15.38l-7.03,15.38H319.12z"/>
		<path class="st11" d="M338.51,105.28l12.51,31.35l12.69-31.35h7.47l-20.3,48.63l-19.83-48.63H338.51z"/>
		<path class="st11" d="M401.77,111.7h-18.13v10.87h17.61v6.42h-17.61v15.12h18.13v6.42h-24.96v-45.23h24.96V111.7z"/>
	</g>
</g>
</svg>
